<svg xmlns="http://www.w3.org/2000/svg" viewBox="0 0 404.83 121.24"><title>linc-logo</title><polygon points="110.67 121.21 138.37 121.21 138.4 40.72 110.67 40.72 110.67 121.21" fill="#f28c00"/><polygon points="110.67 27.87 138.37 27.87 138.4 1.24 110.67 1.24 110.67 27.87" fill="#f28c00"/><path d="M272.35,72.14V42.87a92.36,92.36,0,0,0-.87-13.41C268.57,9.59,258,1.22,234.87,1.22H151.12V121.14h27.59l0-93.39H228c10.7,0,15.5,3.63,16.33,16.81v67.49a9.08,9.08,0,0,0,9.08,9.08h19Z" fill="#f28c00"/><path d="M355.84,0H326.56a92.55,92.55,0,0,0-13.41.87c-19.86,2.91-28.24,13.53-28.24,36.6v83.76H404.83V93.64l-93.38,0V44.37c0-10.69,3.64-15.5,16.8-16.33h67.5A9.08,9.08,0,0,0,404.82,19V0Z" fill="#f28c00"/><path d="M89.58,94.54c-.2,0-.41,0-.61,0H43.88c-10.6,0-15.24-3.51-16.06-16.68V1.24L0,1.22l0,49H0V79.51c0,23.64,6.17,36.09,22.69,40.15a61.51,61.51,0,0,0,14.48,1.51H97.94a9.08,9.08,0,0,0,.1-1.28V103.58a9.06,9.06,0,0,0-8.46-9" fill="#f28c00"/></svg>